<svg viewBox="0 0 368 50" xmlns="http://www.w3.org/2000/svg"><path fill="currentColor" d="M38.81.27L37.4 8.96H20.54l-1.72 10.58h14.27l-1.37 8.72H17.4L14.13 49H.58L8.33.27H38.8zm52.67 0l-4.15 29.78c-.6 4.31-1.94 7.93-4.05 10.86a19.35 19.35 0 0 1-8.13 6.56 28.05 28.05 0 0 1-11.29 2.16c-5.61 0-10.1-.98-13.46-2.95-3.35-1.97-5.7-4.32-7.04-7.07a17.99 17.99 0 0 1-2.02-7.9c0-2.1.22-4.5.65-7.25L45.5.27h11.9l-3.58 25.46c-.2 1.26-.3 2.5-.3 3.69 0 2.65.73 4.86 2.2 6.62 1.46 1.77 4.15 2.66 8.07 2.66 1.99 0 3.77-.32 5.35-.97a9.44 9.44 0 0 0 4.05-3.27c1.13-1.53 1.9-3.6 2.3-6.2L79.6.27h11.9zm55.84 0L140.04 49h-11.6l-19.06-29.32L104.92 49H92.5L99.7.27h11.68l19.09 29.29 4.4-29.29h12.44zm16.93 28.68v-10h-10v10h10zm56.65-4.8c0 5.4-1.03 9.96-3.1 13.64a19.81 19.81 0 0 1-9.19 8.36c-4.07 1.9-9.1 2.85-15.1 2.85h-22.46l7-48.73h17.92c4.24 0 7.95.64 11.13 1.9a20.9 20.9 0 0 1 7.82 5.24 21.4 21.4 0 0 1 4.52 7.61 28.04 28.04 0 0 1 1.46 9.12zm-12.7.17c0-2.44-.46-4.8-1.38-7.1a12.65 12.65 0 0 0-5.12-5.85c-2.48-1.61-5.93-2.41-10.33-2.41h-2l-4.54 31.32h6.54c3.11 0 5.8-.47 8.03-1.4a13.29 13.29 0 0 0 8-8.83c.54-1.83.8-3.74.8-5.73zM275.73.27l-4.16 29.78c-.58 4.31-1.93 7.93-4.04 10.86a19.35 19.35 0 0 1-8.13 6.56 28.05 28.05 0 0 1-11.3 2.16c-5.6 0-10.09-.98-13.45-2.95-3.36-1.97-5.7-4.32-7.05-7.07a17.99 17.99 0 0 1-2-7.9c0-2.1.2-4.5.63-7.25L229.74.27h11.9l-3.58 25.46c-.2 1.26-.3 2.5-.3 3.69 0 2.65.73 4.86 2.2 6.62 1.46 1.77 4.15 2.66 8.07 2.66 1.99 0 3.77-.32 5.34-.97a9.44 9.44 0 0 0 4.06-3.27c1.13-1.53 1.9-3.6 2.3-6.2l4.1-27.99h11.9zm50.88 23.87c0 5.42-1.03 9.97-3.1 13.65a19.81 19.81 0 0 1-9.19 8.36c-4.07 1.9-9.1 2.85-15.1 2.85h-22.46l7-48.73h17.92c4.24 0 7.95.64 11.13 1.9a20.9 20.9 0 0 1 7.82 5.24 21.4 21.4 0 0 1 4.52 7.61 28.04 28.04 0 0 1 1.46 9.12zm-12.7.18c0-2.44-.46-4.8-1.38-7.1a12.65 12.65 0 0 0-5.12-5.85c-2.48-1.61-5.93-2.41-10.33-2.41h-2l-4.54 31.32h6.54c3.11 0 5.8-.47 8.03-1.4a13.29 13.29 0 0 0 8-8.83c.54-1.83.8-3.74.8-5.73zm-140.48 4.67h-8.74v9.96h-10.82V29h-10.33l1.51-10.12h8.82V8.95h10.78v9.92h10.24l-1.46 10.12zM367.95.27l-1.23 8.69H347l-1.52 10.58h17.13l-1.24 8.72h-17.26l-1.65 12.02h23.98L365.2 49h-36.53L335.75.27h32.2z"/></svg>
